PathFileType	4	(X/Y/Z)	D:\TRACE\v60_Jaco2_6-2-23\BothDRS_Motion3_5-v60.trc
DataRate	CameraRate	NumFrames	NumMarkers	Units	OrigDataRate	OrigDataStartFrame	OrigNumFrames
100.00	100.00	      39	9	mm	100.00	876	      7000
Frame#	Time	front left toe			Front right toe			aft left toe			aft right toe			Arm			FL body			FR body			AL Body			AR Body			
		X1	Y1	Z1	X2	Y2	Z2	X3	Y3	Z3	X4	Y4	Z4	X5	Y5	Z5	X6	Y6	Z6	X7	Y7	Z7	X8	Y8	Z8	X9	Y9	Z9	

876	8.750	-192.40366	-3.39695	-251.16475	192.53725	20.74794	-248.19540	-180.75085	59.77917	373.79797	179.23380	33.73045	369.49033	-5.98977	1103.59424	-594.00330	-76.58049	490.05484	-423.26141	82.20447	490.65344	-423.82867	-68.11526	589.20966	515.84393	84.38642	580.80249	515.85162	
877	8.760	-192.22119	-3.49833	-251.17796	192.97304	12.43131	-248.70650	-179.77023	51.21485	373.89941	179.53748	33.79010	369.47870	-5.84960	1103.50024	-594.02277	-76.40012	489.97745	-423.27878	82.48173	490.53638	-423.91858	-67.10181	589.04993	515.79852	84.92645	580.62189	515.77008	
878	8.770	-192.10666	-3.56231	-251.16148	193.57094	5.03021	-248.69467	-178.77951	43.30539	374.01944	179.76469	33.81680	369.42361	-5.60823	1103.39758	-593.98279	-76.22598	489.90955	-423.27225	82.77777	490.30191	-424.09851	-66.03214	589.37738	516.47327	86.14027	580.19464	515.65515	
879	8.780	-192.03590	-3.57868	-251.09886	194.30510	0.89709	-249.42329	-178.97160	40.05799	372.67288	180.26764	33.90043	369.46130	-5.20603	1103.26880	-594.03046	-75.89405	489.89886	-423.29379	83.01873	490.20447	-424.27472	-65.35925	589.14154	516.47015	87.11404	579.73969	515.43158	
880	8.790	-191.93752	-3.61373	-251.12674	195.41101	-0.67540	-250.12579	-179.17674	38.15971	373.72247	180.51711	33.94179	369.46729	-4.89106	1103.23450	-594.12994	-75.68834	489.90457	-423.33047	83.21186	490.17056	-424.46237	-63.63038	589.22528	516.47687	87.88396	579.85419	515.22424	
881	8.800	-191.83423	-3.53962	-251.00633	196.05423	-1.08306	-251.34109	-179.43773	38.50119	373.17563	180.48466	34.01260	369.50488	-4.60057	1103.28967	-594.30518	-75.47594	490.03519	-423.22079	83.32476	490.21771	-424.58936	-62.66207	590.24622	516.30566	89.29804	580.83948	515.22717	
882	8.810	-191.56133	-3.23848	-250.83369	195.81177	-1.88330	-250.46181	-178.87878	40.18915	373.06378	180.39255	34.13238	369.41702	-4.16778	1103.84167	-594.69983	-75.47549	490.72919	-423.27048	83.40715	491.08780	-424.62192	-61.44529	591.45685	516.34058	90.58270	582.23871	515.02484	
883	8.820	-190.75751	-1.98345	-251.15054	196.16090	-2.12757	-250.77509	-178.58405	39.55470	373.39539	180.68404	35.48444	368.96078	-3.62749	1104.66895	-595.49774	-75.26517	491.42883	-422.91980	83.57771	491.88504	-424.60233	-60.09542	592.40338	516.52386	91.40798	583.15619	514.91663	
884	8.830	-187.27313	2.81643	-249.68060	196.14076	-2.48135	-250.54561	-177.70027	38.07660	373.01343	179.06296	38.23962	371.37299	-3.59261	1105.39478	-596.05835	-74.99156	492.78235	-422.98749	82.85651	493.29318	-424.65271	-59.03858	592.62817	516.42712	92.71148	583.29065	514.80182	
885	8.840	-183.07285	6.77735	-246.04135	196.18787	-2.49134	-251.25224	-178.18941	38.66927	373.04019	176.55428	42.73193	374.76825	-3.75888	1105.73901	-595.91504	-74.89218	493.77313	-422.94327	83.92931	493.89709	-425.11331	-57.90139	592.99390	516.35907	93.81187	583.01855	514.36713	
886	8.850	-180.71576	14.62527	-243.97476	196.32596	-2.70360	-251.28380	-177.17763	38.18336	372.76682	172.56889	52.27743	375.18903	-4.18459	1106.48975	-595.51849	-74.65247	494.08371	-423.04672	84.24944	494.31363	-425.10590	-57.09629	593.29968	516.30585	93.68220	583.53302	514.39252	
887	8.860	-179.88281	25.74978	-244.69633	196.84764	-2.94857	-251.24789	-176.71114	38.46107	372.56638	171.08876	62.91295	374.89221	-4.49316	1107.40771	-595.05072	-74.29102	494.08398	-422.99707	84.56594	494.38449	-425.14816	-56.66004	593.65790	516.39789	95.12849	583.84088	514.48645	
888	8.870	-180.18002	37.02007	-245.15071	197.06262	-3.06048	-251.03915	-176.74971	38.34813	372.70779	171.87527	75.76887	373.42612	-4.57936	1108.25171	-594.40704	-74.29719	494.40634	-423.35355	85.03706	494.24545	-425.14200	-56.50131	593.68018	516.33270	95.53412	583.83295	514.60901	
889	8.880	-180.36464	49.58892	-246.13673	197.09259	-3.16800	-250.97562	-177.04399	37.95537	372.77673	175.66420	87.99715	372.36340	-4.32382	1108.70020	-593.85620	-73.60587	494.22961	-423.23267	85.64677	494.03906	-424.96423	-56.46995	593.25299	516.27362	95.90594	583.24689	514.68683	
890	8.890	-181.75136	62.18906	-246.76619	197.12186	-3.17078	-250.92639	-177.25505	37.67485	372.90051	178.84323	100.88824	371.25385	-3.40893	1108.41553	-593.64044	-73.07233	494.12766	-423.08682	86.09286	494.03708	-424.82056	-56.57975	592.75903	516.50775	95.83726	582.58521	514.97516	
891	8.900	-182.52679	74.41682	-247.24864	197.26262	-3.17393	-250.81563	-177.32112	37.49234	372.87387	182.18542	113.06098	370.53043	-1.88678	1107.89001	-593.82416	-72.69144	493.95926	-422.97375	86.26811	494.03708	-424.73874	-56.94336	592.16583	516.73181	95.49265	581.99805	514.86591	
892	8.910	-183.22787	85.93828	-247.30119	197.26160	-3.31563	-250.78131	-177.20915	37.43092	372.87610	184.33066	124.75439	370.26843	-0.35005	1107.38208	-593.44922	-72.35964	493.91708	-422.86343	86.49736	493.92029	-424.49951	-57.14153	591.94336	516.89355	95.00121	581.67932	515.49292	
893	8.920	-183.50444	97.51577	-247.79712	197.22809	-3.33340	-250.78378	-177.20166	37.44632	372.88501	185.38303	135.76332	369.98453	0.74441	1107.19617	-593.15405	-72.00035	493.83005	-422.66852	86.84298	493.66016	-424.26831	-57.19006	591.82715	517.06171	94.42438	581.66437	515.72864	
894	8.930	-183.48799	107.12815	-247.72316	197.40471	-3.25187	-250.61913	-177.15045	37.42564	372.96848	185.55080	145.88077	370.05753	1.77142	1107.19727	-592.99573	-71.76852	493.54562	-422.61777	87.28681	493.16635	-423.76294	-57.40451	591.90027	517.27826	94.30087	581.73267	515.98901	
895	8.940	-183.80972	115.31441	-247.57706	197.38139	-3.26998	-250.52005	-177.16443	37.34562	372.97046	185.81476	154.88121	370.13446	2.20234	1107.01453	-592.95898	-71.36452	492.89880	-422.02051	87.63383	492.58316	-423.43591	-57.57476	591.91772	517.49030	94.65409	581.58020	516.39795	
896	8.950	-184.22461	121.59306	-247.02142	197.62627	-3.15164	-250.28258	-177.19814	37.27348	373.08084	186.33530	161.51334	370.82486	2.42855	1106.69238	-592.77960	-71.23962	492.46530	-421.79379	87.92459	492.21948	-423.00754	-57.89675	592.01379	517.67419	94.19231	581.80835	516.70587	
897	8.960	-184.79967	125.02576	-246.09013	197.75174	-3.08640	-250.13551	-177.24049	37.29454	373.07111	186.70065	164.22993	371.68988	2.55011	1106.15955	-592.69427	-70.76360	492.51666	-421.47870	88.33215	492.10733	-422.63116	-57.84622	592.42438	518.21802	93.88925	581.78931	517.09796	
898	8.970	-185.01692	124.72512	-244.98924	197.49594	-3.19440	-250.21326	-177.24522	37.26018	373.06995	188.24992	164.17920	372.88480	2.89249	1105.51965	-592.77655	-70.18094	492.45123	-421.20599	88.74693	491.99561	-422.15131	-58.72001	592.28967	518.26440	93.38705	581.87262	517.61761	
899	8.980	-185.65797	121.56629	-243.56483	197.54970	-3.21853	-250.20444	-177.26474	37.30803	373.04938	189.54825	160.83310	374.34961	3.74190	1104.85266	-592.94904	-69.79147	492.43701	-420.97849	89.29200	491.92691	-421.51907	-59.33019	592.34448	518.67932	92.86584	581.97839	518.15247	
900	8.990	-185.09331	116.47717	-242.48512	197.61072	-3.21835	-250.14520	-177.27634	37.19176	373.10660	190.49100	156.33691	375.31213	4.37525	1104.65308	-592.99774	-69.52979	492.46078	-420.84464	89.56685	491.97812	-421.15698	-59.87645	592.29449	519.08820	92.22117	581.86908	518.55225	
901	9.000	-184.77484	110.57730	-242.07716	197.53923	-3.27508	-250.08398	-177.94034	37.27810	373.43939	190.46120	150.89822	376.06451	5.10333	1104.58667	-592.69122	-69.06301	492.26120	-420.27060	89.80964	491.99307	-420.84592	-60.84718	592.20111	519.20270	91.66774	581.93719	518.96954	
902	9.010	-183.95903	103.63978	-241.79146	197.82918	-3.11740	-249.98010	-177.30447	36.86166	373.19299	190.81381	144.05455	376.94391	5.80740	1104.70129	-591.93829	-68.61671	492.03964	-419.77609	89.91051	492.09360	-420.58685	-61.36782	592.24268	519.40619	90.97356	581.99371	519.37305	
903	9.020	-183.24875	95.90668	-241.83900	197.80179	-3.15372	-249.92984	-177.25912	36.75150	373.23596	189.82111	136.71611	377.52289	6.04853	1105.25134	-591.23389	-68.50115	492.07840	-419.79483	90.14131	492.05487	-420.31503	-62.10422	592.16492	519.86835	90.50652	582.08087	519.73627	
904	9.030	-182.86736	86.74347	-242.10254	197.63361	-3.25684	-249.93523	-177.98601	36.80431	373.58609	189.54988	128.45056	377.63702	6.03845	1105.87903	-590.77576	-68.35002	492.29117	-419.88882	90.52543	492.19736	-420.00867	-62.89320	592.13794	520.00354	89.88970	581.99426	520.11438	
905	9.040	-181.81720	76.04008	-242.12271	197.75734	-3.21217	-249.81818	-177.52708	36.64275	373.07391	189.53827	119.00525	378.04102	5.84816	1106.30115	-590.18768	-68.11913	492.42462	-419.81070	90.91059	492.34967	-419.55969	-63.26020	592.03497	520.18457	88.23959	581.77936	520.25140	
906	9.050	-182.35219	65.52555	-242.47130	197.69087	-3.19372	-249.79555	-177.68211	36.27910	372.97501	189.30496	108.79933	378.52817	5.76595	1106.44202	-589.65546	-67.65297	492.44260	-419.46918	91.10048	492.57153	-419.21375	-64.36609	591.57635	520.23065	88.64360	581.47009	520.64435	
907	9.060	-181.98459	54.52821	-242.09996	197.54285	-3.16927	-249.78195	-177.88002	35.88784	372.99469	188.72850	97.88853	378.97653	5.70871	1106.42102	-589.29572	-67.40086	492.62228	-419.29642	91.31637	492.77612	-418.87192	-65.03535	591.20996	520.46887	87.79678	581.19879	521.06378	
908	9.070	-182.12283	43.63730	-241.19250	197.96036	-2.88551	-249.47571	-177.96150	35.70191	373.02988	188.12381	87.64658	379.71347	5.83491	1106.42737	-589.03723	-67.36784	492.86414	-419.27505	91.51984	492.93274	-418.71808	-65.79951	591.12427	520.73212	85.58726	580.94360	521.26886	
909	9.080	-181.95441	33.12798	-240.47041	197.93051	-2.73176	-249.27092	-178.18402	35.98543	373.20129	187.26639	78.64034	379.97086	6.13976	1106.43762	-588.73212	-67.38819	492.90143	-419.23370	91.60495	493.00446	-418.51630	-66.47144	590.94983	520.87848	85.29845	580.71960	521.23291	
910	9.090	-182.32800	23.78824	-240.19121	197.94357	-2.69752	-249.18634	-178.31310	35.84795	373.21951	186.50203	69.54333	380.34097	6.44221	1106.60840	-588.52875	-67.45116	492.86761	-419.20493	91.57842	492.95306	-418.31808	-67.26161	590.80414	520.89575	86.06643	580.65015	521.73474	
911	9.100	-182.66086	15.24429	-239.96535	197.84485	-2.61484	-249.03079	-178.39441	35.64815	373.23605	185.53247	61.01654	380.55338	6.61876	1106.65332	-588.26074	-67.47473	492.86801	-419.17188	91.46580	492.83572	-418.10861	-67.99323	590.70306	520.91156	85.25976	580.57648	521.99268	
912	9.110	-183.29636	7.39865	-239.81468	197.68794	-2.60061	-249.02397	-178.47101	35.50041	373.29233	184.79463	53.45824	380.79340	6.69228	1106.50867	-588.01599	-67.79585	492.83160	-419.33521	91.29860	492.65491	-417.88556	-68.25699	590.57556	521.07526	85.02000	580.38983	522.25354	
913	9.120	-183.34105	0.62056	-239.48105	197.65349	-2.51127	-248.98004	-178.62381	35.19577	373.69415	184.57013	47.11089	380.82208	6.55337	1106.45056	-587.90997	-67.89728	492.63626	-419.27374	91.13680	492.47314	-417.78159	-69.24243	590.41626	521.16779	84.38843	580.25006	522.42438	
914	9.130	-185.06593	2.51964	-242.35492	197.84102	-2.32563	-248.82542	-178.62326	35.11708	373.71475	184.44453	41.36699	380.68015	6.37594	1106.31860	-587.91272	-67.99530	492.59497	-419.28702	91.07728	492.37946	-417.62820	-69.98292	589.56494	520.33282	81.92512	580.33459	522.42743	
